<svg width="113" height="30" viewBox="0 0 113 30" fill="none" xmlns="http://www.w3.org/2000/svg">
<path d="M16.568 14.864C14.616 17.008 12.568 17.104 11.736 17.104C10.168 17.104 8.696 16.496 7.768 15.632C6.648 14.576 6.04 12.944 6.04 11.472C6.04 9.968 6.584 8.304 7.896 7.088C8.92 6.16 10.136 5.68 11.736 5.68C12.664 5.68 14.776 5.808 16.568 8.016V1.392C14.264 0.463999 12.6 0.303999 11.576 0.303999C8.248 0.303999 5.4 1.712 3.512 3.632C1.592 5.584 0.28 8.464 0.28 11.504C0.28 14.288 1.432 17.2 3.512 19.28C5.272 21.008 8.056 22.48 11.768 22.48C13.144 22.48 14.36 22.224 16.568 21.424V14.864ZM31.6357 9.072C31.0278 8.4 29.6517 7.216 27.3477 7.216C25.2997 7.216 23.4117 8.016 22.1957 9.232C21.0437 10.384 19.9877 12.272 19.9877 14.96C19.9877 17.104 20.6597 18.736 22.0357 20.208C23.7637 22.032 25.6517 22.48 27.1877 22.48C28.5957 22.48 30.4517 22.064 31.6357 20.432V22H36.7558V7.696H31.6357V9.072ZM28.4997 11.568C29.5877 11.568 30.3237 12.048 30.8038 12.496C31.6037 13.264 31.7957 14.16 31.7957 14.832C31.7957 15.984 31.2837 16.688 30.8357 17.136C30.1957 17.776 29.3637 18.128 28.5317 18.128C27.6677 18.128 26.7717 17.68 26.2277 17.168C25.5877 16.56 25.2357 15.664 25.2357 14.832C25.2357 14.096 25.5557 13.168 26.2597 12.496C26.9957 11.792 27.8597 11.568 28.4997 11.568ZM41.2425 22H46.3625V15.888C46.3625 15.12 46.4265 13.616 47.5145 12.624C48.2505 11.952 49.1785 11.856 49.8505 11.856C51.0985 11.856 51.8025 12.24 52.0585 12.368V7.536C51.3865 7.504 51.1625 7.472 51.0345 7.472C50.0745 7.472 49.1465 7.632 48.3785 8.048C47.6105 8.432 46.8745 9.072 46.3625 10.032V7.696H41.2425V22ZM86.4197 7.696V9.168C84.9157 7.472 83.0597 7.28 82.1637 7.28C80.2757 7.28 78.3557 8.016 76.9797 9.456C75.7317 10.768 74.8677 12.816 74.8677 15.056C74.8677 17.008 75.5717 18.96 76.8517 20.272C77.8117 21.264 79.5077 22.288 82.1317 22.288C83.2837 22.288 84.8197 22.096 86.4197 20.4V21.84C86.4197 22.672 86.2597 23.696 85.3957 24.496C84.7237 25.136 83.9237 25.296 83.1237 25.296C81.4277 25.296 80.9157 24.4 80.7237 23.824H75.0277C75.2197 25.072 75.7637 25.936 76.5957 26.8C78.4197 28.656 80.6277 29.328 83.2837 29.328C85.3637 29.328 87.7637 28.88 89.5877 27.024C91.3477 25.2 91.5397 23.248 91.5397 21.104V7.696H86.4197ZM83.3797 11.536C84.2437 11.536 85.0757 11.888 85.6517 12.464C86.2597 13.072 86.6757 14.064 86.6757 14.8C86.6757 15.536 86.3557 16.464 85.7157 17.104C85.1077 17.712 84.2117 18.064 83.4117 18.064C82.6437 18.064 81.7797 17.808 81.1077 17.136C80.4677 16.496 80.1157 15.632 80.1157 14.8C80.1157 14.128 80.3717 13.264 81.1077 12.496C81.7797 11.824 82.5157 11.536 83.3797 11.536ZM104.061 11.568C104.861 11.568 105.757 11.952 106.333 12.496C106.973 13.136 107.325 14.064 107.325 14.832C107.325 15.664 106.973 16.496 106.333 17.104C105.725 17.712 104.893 18.064 104.061 18.064C103.197 18.064 102.365 17.712 101.757 17.104C101.181 16.528 100.765 15.696 100.765 14.832C100.765 14 101.117 13.104 101.757 12.496C102.333 11.952 103.229 11.568 104.061 11.568ZM112.637 14.832C112.637 12.272 111.485 10.608 110.429 9.584C109.245 8.464 107.197 7.216 104.029 7.216C100.925 7.216 98.8448 8.432 97.6608 9.584C96.6048 10.608 95.4528 12.272 95.4528 14.832C95.4528 16.752 96.0928 18.576 97.6608 20.112C99.6448 22.064 101.949 22.48 104.029 22.48C106.333 22.48 108.541 21.968 110.429 20.112C111.997 18.576 112.637 16.752 112.637 14.832Z" fill="white"/>
<path d="M71.4883 17.296H64.5123L68.0963 13.968C70.0163 12.176 71.2643 10.32 71.2643 7.632C71.2643 4.88 70.0483 3.248 69.1843 2.384C68.2243 1.424 66.3683 0.175999 63.1683 0.175999C60.5123 0.175999 58.5603 1.04 57.1203 2.48C56.0003 3.6 54.7843 5.616 54.7523 8.4H60.4803C60.5123 7.664 60.7363 6.448 61.2483 5.776C61.6003 5.328 62.2083 4.912 63.1043 4.912C63.8083 4.912 64.3523 5.2 64.6723 5.552C65.3123 6.256 65.3123 7.376 65.3123 7.6C65.3123 8.976 64.7363 10.032 64.1603 10.928C63.1363 12.56 61.6963 14.32 59.7763 16.336L54.3683 22H71.4883V17.296Z" fill="#F8CD57"/>
</svg>
